<svg width="337" height="98" viewBox="0 0 337 98" fill="none" xmlns="http://www.w3.org/2000/svg">
<path d="M181.047 50.4473H169.943V17.0782H159.907V7.6153H191.054V17.0782H181.047V50.4473ZM231.68 50.4473H207.279V7.6153H231.68V16.9024H218.383V23.6407H230.696V32.9278H218.383V41.0137H231.68V50.4473ZM267.525 16.4922C266.214 16.4922 265.042 16.7852 264.012 17.3711C262.981 17.9375 262.1 18.7676 261.369 19.8614C260.638 20.9551 260.076 22.293 259.682 23.875C259.308 25.4375 259.12 27.2149 259.12 29.2071C259.12 31.9024 259.448 34.168 260.105 36.0039C260.76 37.8399 261.753 39.2266 263.084 40.1641C264.433 41.1016 266.12 41.5703 268.144 41.5703C269.981 41.5703 271.743 41.3067 273.428 40.7793C275.134 40.252 276.849 39.6172 278.573 38.875V48.6602C276.755 49.5 274.891 50.1055 272.979 50.4766C271.086 50.8477 269.071 51.0332 266.935 51.0332C262.475 51.0332 258.821 50.1153 255.972 48.2793C253.142 46.4239 251.052 43.8555 249.703 40.5743C248.372 37.293 247.707 33.4844 247.707 29.1485C247.707 25.9063 248.138 22.9375 249 20.2422C249.881 17.5469 251.165 15.2129 252.852 13.2403C254.538 11.2481 256.619 9.7149 259.092 8.6407C261.585 7.5469 264.433 7 267.638 7C269.625 7 271.714 7.2442 273.907 7.7325C276.118 8.2012 278.273 8.9629 280.373 10.0176L276.971 19.1289C275.471 18.3868 273.953 17.7618 272.417 17.2539C270.88 16.7461 269.25 16.4922 267.525 16.4922ZM332.186 50.4473H321.026V32.9864H308.123V50.4473H296.963V7.6153H308.123V23.4942H321.026V7.6153H332.186V50.4473Z" fill="black"/>
<path d="M173.698 85.1437C173.698 86.4897 173.385 87.6587 172.76 88.6527C172.134 89.6467 171.221 90.4127 170.018 90.9507C168.827 91.4887 167.377 91.7587 165.668 91.7587C164.914 91.7587 164.173 91.7067 163.448 91.6027C162.733 91.4997 162.043 91.3497 161.377 91.1527C160.721 90.9457 160.096 90.6917 159.5 90.3917V85.9197C160.532 86.3957 161.605 86.8257 162.718 87.2087C163.83 87.5917 164.933 87.7837 166.026 87.7837C166.781 87.7837 167.386 87.6797 167.843 87.4727C168.31 87.2657 168.648 86.9807 168.856 86.6187C169.065 86.2567 169.169 85.8427 169.169 85.3767C169.169 84.8067 168.986 84.3207 168.618 83.9167C168.251 83.5137 167.744 83.1357 167.098 82.7837C166.462 82.4317 165.743 82.0537 164.938 81.6497C164.431 81.4015 163.88 81.1013 163.284 80.7494C162.688 80.3871 162.122 79.9471 161.586 79.4295C161.05 78.912 160.607 78.2857 160.26 77.5507C159.922 76.8054 159.753 75.9152 159.753 74.88C159.753 73.524 160.051 72.3646 160.648 71.4019C161.243 70.4392 162.093 69.7042 163.195 69.197C164.307 68.6794 165.618 68.4206 167.128 68.4206C168.26 68.4206 169.338 68.5604 170.361 68.8399C171.394 69.109 172.472 69.5025 173.594 70.0201L172.104 73.7621C171.102 73.3376 170.203 73.0116 169.408 72.7838C168.613 72.5457 167.804 72.4267 166.98 72.4267C166.403 72.4267 165.912 72.525 165.504 72.7217C165.097 72.9081 164.789 73.1772 164.581 73.5291C164.372 73.8707 164.268 74.2693 164.268 74.7248C164.268 75.263 164.417 75.7185 164.714 76.0912C165.022 76.4535 165.48 76.8054 166.085 77.147C166.701 77.4886 167.466 77.8872 168.379 78.3426C169.492 78.8913 170.44 79.4658 171.225 80.0662C172.02 80.6562 172.631 81.3549 173.058 82.1627C173.485 82.9597 173.698 83.9527 173.698 85.1437ZM197.418 80.0662C197.418 81.8157 197.209 83.4097 196.792 84.8487C196.375 86.2767 195.739 87.5087 194.884 88.5437C194.04 89.5797 192.967 90.3767 191.666 90.9357C190.365 91.4837 188.826 91.7587 187.048 91.7587C185.27 91.7587 183.731 91.4837 182.429 90.9357C181.128 90.3767 180.05 89.5797 179.196 88.5437C178.352 87.5087 177.721 86.2717 177.304 84.8327C176.887 83.3937 176.678 81.7947 176.678 80.0351C176.678 77.6853 177.046 75.6409 177.781 73.9018C178.525 72.1524 179.668 70.7963 181.207 69.8336C182.747 68.8709 184.704 68.3896 187.078 68.3896C189.442 68.3896 191.383 68.8709 192.903 69.8336C194.432 70.7963 195.565 72.1524 196.3 73.9018C197.045 75.6512 197.418 77.706 197.418 80.0662ZM181.52 80.0662C181.52 81.6497 181.709 83.0167 182.086 84.1657C182.474 85.3037 183.075 86.1837 183.889 86.8047C184.704 87.4157 185.756 87.7207 187.048 87.7207C188.359 87.7207 189.422 87.4157 190.236 86.8047C191.051 86.1837 191.642 85.3037 192.01 84.1657C192.387 83.0167 192.576 81.6497 192.576 80.0662C192.576 77.6853 192.148 75.8117 191.294 74.4453C190.44 73.0789 189.034 72.3956 187.078 72.3956C185.777 72.3956 184.713 72.7062 183.889 73.3273C183.075 73.938 182.474 74.8179 182.086 75.9669C181.709 77.1056 181.52 78.472 181.52 80.0662ZM201.932 91.4477V68.7467H206.55V87.4727H215.386V91.4477H201.932ZM236.914 68.7467V83.4357C236.914 84.9987 236.581 86.4117 235.916 87.6747C235.26 88.9267 234.262 89.9207 232.922 90.6557C231.591 91.3907 229.912 91.7587 227.885 91.7587C225.005 91.7587 222.81 90.9927 221.3 89.4607C219.791 87.9277 219.036 85.8997 219.036 83.3737V68.7467H223.639V82.6437C223.639 84.5177 224.007 85.8317 224.742 86.5877C225.477 87.3437 226.565 87.7207 228.005 87.7207C229.018 87.7207 229.837 87.5397 230.464 87.1777C231.099 86.8157 231.566 86.2567 231.863 85.5007C232.162 84.7447 232.311 83.7827 232.311 82.6127V68.7467H236.914ZM250.651 91.4477H246.033V72.7528H240.117V68.7467H256.566V72.7528H250.651V91.4477ZM259.918 91.4477V68.7467H264.537V91.4477H259.918ZM289.791 80.0662C289.791 81.8157 289.582 83.4097 289.164 84.8487C288.748 86.2767 288.112 87.5087 287.258 88.5437C286.413 89.5797 285.341 90.3767 284.04 90.9357C282.738 91.4837 281.198 91.7587 279.42 91.7587C277.643 91.7587 276.103 91.4837 274.802 90.9357C273.501 90.3767 272.424 89.5797 271.57 88.5437C270.725 87.5087 270.094 86.2717 269.677 84.8327C269.26 83.3937 269.051 81.7947 269.051 80.0351C269.051 77.6853 269.418 75.6409 270.153 73.9018C270.899 72.1524 272.041 70.7963 273.581 69.8336C275.12 68.8709 277.077 68.3896 279.451 68.3896C281.814 68.3896 283.756 68.8709 285.276 69.8336C286.806 70.7963 287.938 72.1524 288.673 73.9018C289.418 75.6512 289.791 77.706 289.791 80.0662ZM273.893 80.0662C273.893 81.6497 274.083 83.0167 274.46 84.1657C274.847 85.3037 275.448 86.1837 276.263 86.8047C277.077 87.4157 278.13 87.7207 279.42 87.7207C280.732 87.7207 281.795 87.4157 282.609 86.8047C283.423 86.1837 284.015 85.3037 284.382 84.1657C284.759 83.0167 284.948 81.6497 284.948 80.0662C284.948 77.6853 284.521 75.8117 283.667 74.4453C282.813 73.0789 281.408 72.3956 279.451 72.3956C278.149 72.3956 277.087 72.7062 276.263 73.3273C275.448 73.938 274.847 74.8179 274.46 75.9669C274.083 77.1056 273.893 78.472 273.893 80.0662ZM313.628 91.4477H307.759L298.283 74.2745H298.148C298.189 74.9887 298.223 75.7081 298.253 76.4328C298.283 77.1574 298.312 77.882 298.342 78.6066C298.372 79.3208 298.402 80.0403 298.431 80.7649V91.4477H294.304V68.7467H300.131L309.591 85.7487H309.695C309.675 85.0457 309.65 84.3467 309.62 83.6527C309.591 82.9597 309.561 82.2657 309.531 81.5727C309.512 80.8788 309.492 80.1852 309.472 79.4916V68.7467H313.628V91.4477ZM331.984 85.1437C331.984 86.4897 331.671 87.6587 331.046 88.6527C330.42 89.6467 329.506 90.4127 328.304 90.9507C327.113 91.4887 325.662 91.7587 323.954 91.7587C323.199 91.7587 322.459 91.7067 321.733 91.6027C321.019 91.4997 320.328 91.3497 319.663 91.1527C319.007 90.9457 318.381 90.6917 317.785 90.3917V85.9197C318.818 86.3957 319.891 86.8257 321.003 87.2087C322.116 87.5917 323.219 87.7837 324.311 87.7837C325.066 87.7837 325.672 87.6797 326.129 87.4727C326.595 87.2657 326.933 86.9807 327.142 86.6187C327.35 86.2567 327.455 85.8427 327.455 85.3767C327.455 84.8067 327.271 84.3207 326.903 83.9167C326.536 83.5137 326.029 83.1357 325.383 82.7837C324.748 82.4317 324.028 82.0537 323.224 81.6497C322.717 81.4015 322.165 81.1013 321.569 80.7494C320.974 80.3871 320.407 79.9471 319.871 79.4295C319.335 78.912 318.893 78.2857 318.545 77.5507C318.207 76.8054 318.038 75.9152 318.038 74.88C318.038 73.524 318.337 72.3646 318.933 71.4019C319.528 70.4392 320.378 69.7042 321.48 69.197C322.593 68.6794 323.904 68.4206 325.413 68.4206C326.545 68.4206 327.624 68.5604 328.647 68.8399C329.679 69.109 330.758 69.5025 331.879 70.0201L330.39 73.7621C329.387 73.3376 328.488 73.0116 327.693 72.7838C326.899 72.5457 326.089 72.4267 325.264 72.4267C324.689 72.4267 324.197 72.525 323.79 72.7217C323.382 72.9081 323.075 73.1772 322.866 73.5291C322.657 73.8707 322.553 74.2693 322.553 74.7248C322.553 75.263 322.702 75.7185 323 76.0912C323.308 76.4535 323.765 76.8054 324.37 77.147C324.986 77.4886 325.751 77.8872 326.665 78.3426C327.777 78.8913 328.726 79.4658 329.51 80.0662C330.306 80.6562 330.916 81.3549 331.343 82.1627C331.77 82.9597 331.984 83.9527 331.984 85.1437Z" fill="black"/>
<path d="M32.6653 98V15.4H0L4.5 0H82L78.1033 15.4H50.1287V98H32.6653Z" fill="#F28C22"/>
<path d="M59.5 98V0H100.606C110.815 0 119.771 2.0533 127.473 6.16C135.175 10.2667 141.175 15.96 145.473 23.24C149.772 30.52 151.921 39.1067 151.921 49C151.921 58.8 149.772 67.3867 145.473 74.76C141.175 82.04 135.175 87.733 127.473 91.84C119.771 95.947 110.815 98 100.606 98H59.5ZM76.9633 82.6H99.8C106.875 82.6 112.965 81.2 118.069 78.4C123.263 75.6 127.249 71.68 130.025 66.64C132.891 61.6 134.324 55.72 134.324 49C134.324 42.1867 132.891 36.3067 130.025 31.36C127.5 26.5 123 23 118 19.5C112.5 17.5 111.5 14.5 83.5 15.5L87 0H59.5V32H76.9633V82.6Z" fill="#E2186A"/>
</svg>
